# AST/ASF file generated using VICON BodyLanguage
# -----------------------------------------------
:version 1.10
:name VICON
:units
  mass 1.0
  length 0.45
  angle deg
:documentation
   .ast/.asf automatically generated from VICON data using
   VICON BodyBuilder and BodyLanguage model FoxedUp or BRILLIANT.MOD
:root
   order TX TY TZ RX RY RZ
   axis XYZ
   position 0 0 0  
   orientation 0 0 0 
:bonedata
  begin
     id 1 
     name lhipjoint
     direction 0.646657 -0.683706 0.338203 
     length 2.4948 
     axis 0 0 0  XYZ
  end
  begin
     id 2 
     name lfemur
     direction 0.34202 -0.939693 0  
     length 6.79491  
     axis 0 0 20  XYZ
    dof rx ry rz
    limits (-160.0 20.0)
           (-70.0 70.0)
           (-60.0 70.0)
  end
  begin
     id 3 
     name ltibia
     direction 0.34202 -0.939693 0   
     length 7.56807   
     axis 0 0 20   XYZ
    dof rx
    limits (-10.0 170.0)
  end
  begin
     id 4 
     name lfoot
     direction 0.0679796 -0.186772 0.980048   
     length 2.53018   
     axis -90 7.62852e-016 20   XYZ
    dof rx rz
    limits (-45.0 90.0)
           (-70.0 20.0)
  end
  begin
     id 5 
     name ltoes
     direction 1.53625e-011 -4.21881e-011 1   
     length 1.26912   
     axis -90 7.62852e-016 20   XYZ
    dof rx
    limits (-90.0 20.0)
  end
  begin
     id 6 
     name rhipjoint
     direction -0.618868 -0.704065 0.348274   
     length 2.42265  
     axis 0 0 0  XYZ 
  end
  begin
     id 7 
     name rfemur
     direction -0.34202 -0.939693 0   
     length 6.73814   
     axis 0 0 -20   XYZ
    dof rx ry rz
    limits (-160.0 20.0)
           (-70.0 70.0)
           (-70.0 60.0)
  end
  begin
     id 8 
     name rtibia
     direction -0.34202 -0.939693 0   
     length 7.66799   
     axis 0 0 -20   XYZ
    dof rx
    limits (-10.0 170.0)
 end
 begin
     id 9 
     name rfoot
     direction -0.0727352 -0.199838 0.977125   
     length 2.57224  
     axis -90 -7.62852e-016 -20   XYZ
    dof rx rz
    limits (-45.0 90.0)
           (-20.0 70.0)
  end
  begin
     id 10 
     name rtoes
     direction -1.53501e-011 -4.21858e-011 1   
     length 1.28858   
     axis -90 -7.62852e-016 -20   XYZ
    dof rx
    limits (-90.0 20.0)
  end
  begin
     id 11 
     name lowerback
     direction -0.0172471 0.995767 -0.0902851   
     length 2.20206   
     axis 0 0 0   XYZ
    dof rx ry rz
    limits (-20.0 45.0)
           (-30.0 30.0)
           (-30.0 30.0)
  end
  begin
     id 12 
     name upperback
     direction -0.000110737 0.999714 0.0239043   
     length 2.19523   
     axis 0 0 0   XYZ
    dof rx ry rz
    limits (-20.0 45.0)
           (-30.0 30.0)
           (-30.0 30.0)
  end
  begin
     id 13 
     name thorax
     direction 0.00704869 0.997783 0.0661741   
     length 2.21977   
     axis 0 0 0   XYZ
    dof rx ry rz
    limits (-20.0 45.0)
           (-30.0 30.0)
           (-30.0 30.0)
  end
  begin
     id 14 
     name lowerneck
     direction -0.00407501 0.995527 0.0943846   
     length 1.83142   
     axis 0 0 0   XYZ
    dof rx ry rz
    limits (-20.0 45.0)
           (-30.0 30.0)
           (-30.0 30.0)
  end
  begin
     id 15 
     name upperneck
     direction 0.0640586 0.986486 -0.150807   
     length 1.84616   
     axis 0 0 0   XYZ
    dof rx ry rz
    limits (-20.0 45.0)
           (-30.0 30.0)
           (-30.0 30.0)
  end
  begin
     id 16
     name head
     direction 0.0188017 0.99791 -0.0618239  
     length 1.85932  
     axis 0 0 0   XYZ
    dof rx ry rz
    limits (-20.0 45.0)
           (-30.0 30.0)
           (-30.0 30.0)
  end
  begin
     id 17 
     name lclavicle
     direction 0.976074 0.206905 0.066852  
     length 3.81043  
     axis 0 0 0   XYZ
    dof ry rz
    limits (-20.0 10.0)
           (0.0 20.0)
  end
  begin
     id 18 
     name lhumerus
     direction 1 -4.48971e-011 1.86916e-027   
     length 5.37587   
     axis 180 -30 -90   XYZ
    dof rx ry rz
    limits (-60.0 90.0)
           (-90.0 90.0)
           (-90.0 90.0)
  end
  begin
     id 19
     name lradius
     direction 1 -4.48968e-011 1.69187e-027   
     length 3.35977   
     axis 180 -30 -90   XYZ
    dof rx
    limits (-10.0 170.0)
  end
  begin
     id 20
     name lwrist
     direction 1 -4.48968e-011 5.8978e-027   
     length 1.67988   
     axis -3.27506e-015 90 90   XYZ
    dof ry
    limits (-180.0 0.0)
 end
  begin
     id 21 
     name lhand
     direction 1 -4.49028e-011 1.18071e-026   
     length 0.561859   
     axis -7.52654e-015 90 90   XYZ
    dof rx rz
    limits (-90.0 90.0)
           (-45.0 45.0)
  end
  begin
     id 22 
     name lfingers
     direction 1 -4.48927e-011 2.35758e-026   
     length 0.452985   
     axis -1.50534e-014 90 90   XYZ
    dof rx
    limits (0.0 90.0)
  end
  begin
     id 23
     name lthumb
     direction 0.707107 -6.34898e-011 0.707107   
     length 0.650399   
     axis -90 45 5.69224e-014   XYZ
    dof rx rz
    limits (-45.0 45.0)
           (-45.0 45.0)
  end
  begin
     id 24 
     name rclavicle
     direction -0.988403 0.151789 0.00439714   
     length 3.6942  
     axis 0 0 0   XYZ 
    dof ry rz
    limits (-10.0 20.0)
           (-20.0 0.0)
  end
  begin
     id 25 
     name rhumerus
     direction -1 -4.48978e-011 1.62495e-027  
     length 5.22819   
     axis 180 30 90   XYZ
    dof rx ry rz
    limits (-90.0 60.0)
           (-90.0 90.0)
           (-90.0 90.0)
  end
  begin
     id 26 
     name rradius
     direction -1 -4.48961e-011 3.47796e-027   
     length 3.40764   
     axis 180 30 90   XYZ
    dof rx
    limits (-10.0 170.0)
  end
  begin
     id 27 
     name rwrist
     direction -1 -4.48949e-011 5.89602e-027   
     length 1.70382   
     axis -3.27506e-015 -90 -90   XYZ
    dof ry
    limits (-180.0 0.0)
  end
  begin
     id 28
     name rhand
     direction -1 -4.48977e-011 1.17973e-026   
     length 0.583255   
     axis -7.52654e-015 -90 -90   XYZ
    dof rx rz
    limits (-90.0 90.0)
           (-45.0 45.0)
  end
  begin
     id 29
     name rfingers
     direction -1 -4.49099e-011 2.36408e-026   
     length 0.470235   
     axis -1.50534e-014 -90 -90   XYZ
    dof rx
    limits (0.0 90.0)
  end
  begin
     id 30
     name rthumb
     direction -0.707107 -6.35011e-011 0.707107   
     length 0.675167   
     axis -90 -45 -5.69224e-014   XYZ
    dof rx rz
    limits (-45.0 45.0)
           (-45.0 45.0)
  end
:hierarchy
  begin
    root lhipjoint rhipjoint lowerback
    lhipjoint lfemur
    lfemur ltibia
    ltibia lfoot
    lfoot ltoes
    rhipjoint rfemur
    rfemur rtibia
    rtibia rfoot
    rfoot rtoes
    lowerback upperback
    upperback thorax
    thorax lowerneck lclavicle rclavicle
    lowerneck upperneck
    upperneck head
    lclavicle lhumerus
    lhumerus lradius
    lradius lwrist
    lwrist lhand lthumb
    lhand lfingers
    rclavicle rhumerus
    rhumerus rradius
    rradius rwrist
    rwrist rhand rthumb
    rhand rfingers
  end

#!OML:ASF G:\JayActor3\Patient Classification 1\Patient 1\Session 2\male.ASF
:FULLY-SPECIFIED
:DEGREES
410
root 42.6413 17.2372 -7.30665 29.0476 -80.6219 -33.69
lowerback 10.131 -1.10727 4.34298
upperback -0.812931 -0.905868 0.78682
thorax -6.60876 -0.58985 -1.4753
lowerneck -6.85046 -3.20296 -3.02417
upperneck -5.93404 -4.04423 9.16091
head -0.425576 -2.06961 3.40608
rclavicle -6.45429e-015 -3.77691e-015
rhumerus -51.5422 17.8523 -89.9554
rradius 69.5915
rwrist 0.250244
rhand -30.9499 17.6905
rfingers 7.12502
rthumb -4.23479 -12.2471
lclavicle -6.45429e-015 -3.77691e-015
lhumerus -34.6824 -4.59182 82.1203
lradius 117.341
lwrist 74.7136
lhand -20.1602 6.98607
lfingers 7.12502
lthumb 6.18515 36.8758
rfemur 16.1135 1.74306 31.7682
rtibia 9.54166e-015
rfoot -14.1619 -12.5139
rtoes 14.4396
lfemur -74.4409 66.18 3.82217
ltibia 151.767
lfoot -13.7156 -29.1268
ltoes -18.1449
411
root 42.5255 17.236 -7.2999 31.2236 -80.4351 -35.8692
lowerback 10.0805 -1.14336 4.83429
upperback -0.879291 -0.889452 0.888478
thorax -6.65759 -0.600035 -1.64663
lowerneck -6.86275 -3.17024 -2.99949
upperneck -5.72434 -4.0111 9.0717
head -0.361011 -2.04609 3.36823
rclavicle 8.44835e-015 -2.127e-014
rhumerus -51.6097 17.7987 -90.03
rradius 69.5876
rwrist 0.205556
rhand -30.9404 17.6602
rfingers 7.12502
rthumb -4.22556 -12.2776
lclavicle 8.44835e-015 -2.127e-014
lhumerus -34.6605 -4.41941 82.148
lradius 117.376
lwrist 74.7505
lhand -20.1407 6.99059
lfingers 7.12502
lthumb 6.20403 36.8797
rfemur 16.4259 1.38131 32.2425
rtibia 2.06736e-014
rfoot -14.4969 -12.764
rtoes 13.9614
lfemur -79.3849 62.5668 -1.77438
ltibia 150.839
lfoot -12.546 -27.8546
ltoes -18.5162
412
root 42.4119 17.2299 -7.29411 33.0535 -80.1655 -37.7177
lowerback 10.0686 -1.20293 5.31827
upperback -0.938972 -0.902823 1.0006
thorax -6.72318 -0.625176 -1.79722
lowerneck -6.85864 -3.14254 -2.96875
upperneck -5.57991 -3.98225 8.97804
head -0.320235 -2.02718 3.32896
rclavicle -2.36057e-016 -1.98785e-016
rhumerus -51.67 17.7576 -90.0934
rradius 69.5834
rwrist 0.157861
rhand -30.9397 17.6336
rfingers 7.12502
rthumb -4.22494 -12.3043
lclavicle -2.36057e-016 -1.98785e-016
lhumerus -34.609 -4.26073 82.1989
lradius 117.414
lwrist 74.7832
lhand -20.1261 7.01941
lfingers 7.12502
lthumb 6.21812 36.9081
rfemur 16.719 0.929924 32.7518
rtibia -2.22639e-014
rfoot -14.8281 -13.2174
rtoes 13.5795
lfemur -83.2185 56.56 -6.91046
ltibia 149.233
lfoot -10.6329 -25.9184
ltoes -19.0124
413
root 42.2992 17.2189 -7.28926 34.4927 -79.8599 -39.179
lowerback 10.0674 -1.27261 5.7572
upperback -0.989711 -0.934495 1.11685
thorax -6.78628 -0.657845 -1.91481
lowerneck -6.84209 -3.11962 -2.94314
upperneck -5.49087 -3.95696 8.89243
head -0.298828 -2.01196 3.2944
rclavicle 2.14936e-014 3.97569e-016
rhumerus -51.7217 17.7431 -90.1479
rradius 69.5799
rwrist 0.106993
rhand -30.928 17.6074
rfingers 7.12502
rthumb -4.21364 -12.3307
lclavicle 2.14936e-014 3.97569e-016
lhumerus -34.5302 -4.12904 82.2737
lradius 117.458
lwrist 74.8031
lhand -20.1064 7.06927
lfingers 7.12502
lthumb 6.23713 36.9575
rfemur 16.9958 0.421505 33.2629
rtibia 2.06736e-014
rfoot -15.1553 -13.8301
rtoes 13.3868
lfemur -85.1679 49.0703 -10.5688
ltibia 147.014
lfoot -8.54655 -23.5693
ltoes -19.5767
414
root 42.1872 17.2029 -7.28583 35.5245 -79.5506 -40.2239
lowerback 10.0599 -1.34313 6.12005
upperback -1.02977 -0.977634 1.2288
thorax -6.83427 -0.693125 -1.99234
lowerneck -6.81987 -3.10331 -2.91793
upperneck -5.44851 -3.9385 8.81876
head -0.292614 -2.00176 3.2646
rclavicle 2.66061e-014 -2.20651e-014
rhumerus -51.7601 17.7559 -90.1983
rradius 69.5828
rwrist 0.0559299
rhand -30.8229 17.5243
rfingers 7.12502
rthumb -4.11214 -12.4157
lclavicle 2.66061e-014 -2.20651e-014
lhumerus -34.419 -4.04049 82.3657
lradius 117.507
lwrist 74.8052
lhand -20.0738 7.12644
lfingers 7.12502
lthumb 6.26861 37.0137
rfemur 17.2578 -0.122618 33.7436
rtibia 3.97569e-014
rfoot -15.4664 -14.5068
rtoes 13.4272
lfemur -85.6093 41.1816 -12.9072
ltibia 144.259
lfoot -6.68791 -21.1253
ltoes -20.0948
415
root 42.0767 17.182 -7.28451 36.1474 -79.2597 -40.8327
lowerback 10.0411 -1.41053 6.38243
upperback -1.06867 -1.03018 1.33112
thorax -6.87374 -0.729247 -2.02216
lowerneck -6.78881 -3.09326 -2.89715
upperneck -5.43771 -3.92672 8.76317
head -0.297047 -1.99603 3.24227
rclavicle -2.6575e-014 2.88238e-014
rhumerus -51.7929 17.7973 -90.2505
rradius 69.5971
rwrist 0.00661277
rhand -30.6568 17.4123
rfingers 7.12502
rthumb -3.95174 -12.5308
lclavicle -2.6575e-014 2.88238e-014
lhumerus -34.2838 -4.00235 82.4699
lradius 117.56
lwrist 74.7873
lhand -20.0218 7.18515
lfingers 7.12502
lthumb 6.31875 37.0709
rfemur 17.5001 -0.687085 34.1619
rtibia 4.6118e-014
rfoot -15.7595 -15.1345
rtoes 13.7076
lfemur -85.1214 33.7931 -14.3624
ltibia 141.048
lfoot -5.20971 -18.901
ltoes -20.5098
416
root 41.9673 17.1567 -7.28519 36.4583 -79.0104 -41.0982
lowerback 9.99842 -1.46743 6.54483
upperback -1.10304 -1.08381 1.41881
thorax -6.89302 -0.761717 -2.01169
lowerneck -6.74464 -3.08625 -2.88341
upperneck -5.4592 -3.91712 8.73071
head -0.313202 -1.99259 3.2298
rclavicle 1.12375e-014 -5.56597e-015
rhumerus -51.7983 17.8658 -90.3073
rradius 69.6019
rwrist -0.0391905
rhand -30.5211 17.3239
rfingers 7.12502
rthumb -3.82064 -12.6216
lclavicle 1.12375e-014 -5.56597e-015
lhumerus -34.1179 -4.01478 82.5766
lradius 117.612
lwrist 74.7457
lhand -19.9432 7.24456
lfingers 7.12502
lthumb 6.39461 37.128
rfemur 17.734 -1.24443 34.4969
rtibia -2.54444e-014
rfoot -16.01 -15.6147
rtoes 14.0895
lfemur -84.0941 27.4694 -15.2796
ltibia 137.447
lfoot -4.08371 -17.0732
ltoes -20.8312
417
root 41.8588 17.1269 -7.2874 36.5982 -78.8243 -41.169
lowerback 9.93459 -1.50642 6.62282
upperback -1.12869 -1.12699 1.48875
thorax -6.88833 -0.785281 -1.97507
lowerneck -6.69664 -3.08062 -2.87877
upperneck -5.50107 -3.90788 8.72242
head -0.335722 -1.98998 3.22769
rclavicle -2.02015e-014 1.43125e-014
rhumerus -51.7805 17.9498 -90.3718
rradius 69.61
rwrist -0.0770881
rhand -30.4149 17.2456
rfingers 7.12502
rthumb -3.71815 -12.7017
lclavicle -2.02015e-014 1.43125e-014
lhumerus -33.9176 -4.07053 82.674
lradius 117.657
lwrist 74.6833
lhand -19.841 7.30154
lfingers 7.12502
lthumb 6.49333 37.182
rfemur 17.9766 -1.76321 34.7423
rtibia 0
rfoot -16.2178 -15.8932
rtoes 14.4519
lfemur -82.7299 22.3921 -15.881
ltibia 133.522
lfoot -3.21347 -15.6593
ltoes -21.1028
418
root 41.7508 17.0925 -7.29033 36.7062 -78.7119 -41.2001
lowerback 9.85831 -1.52192 6.64854
upperback -1.14271 -1.14794 1.53803
thorax -6.8612 -0.79543 -1.93521
lowerneck -6.63679 -3.07622 -2.881
upperneck -5.55593 -3.89918 8.73545
head -0.363741 -1.98826 3.23456
rclavicle -4.69629e-015 -1.94809e-014
rhumerus -51.7344 18.0328 -90.4483
rradius 69.6072
rwrist -0.100225
rhand -30.3111 17.1662
rfingers 7.12502
rthumb -3.61792 -12.7828
lclavicle -4.69629e-015 -1.94809e-014
lhumerus -33.6914 -4.16363 82.7533
lradius 117.69
lwrist 74.6008
lhand -19.7239 7.35187
lfingers 7.12502
lthumb 6.60637 37.2288
rfemur 18.2478 -2.22065 34.9042
rtibia 4.77083e-014
rfoot -16.3737 -15.9701
rtoes 14.6438
lfemur -81.1108 18.4905 -16.2919
ltibia 129.334
lfoot -2.5555 -14.5734
ltoes -21.3458
419
root 41.6429 17.0538 -7.29293 36.9128 -78.669 -41.3397
lowerback 9.77983 -1.51411 6.66314
upperback -1.14169 -1.14111 1.5696
thorax -6.81441 -0.791043 -1.91274
lowerneck -6.56707 -3.07314 -2.88628
upperneck -5.61468 -3.8918 8.75316
head -0.394448 -1.98746 3.24383
rclavicle -1.44926e-014 -1.66979e-014
rhumerus -51.6651 18.1071 -90.5375
rradius 69.5974
rwrist -0.107446
rhand -30.2166 17.0952
rfingers 7.12502
rthumb -3.52663 -12.8554
lclavicle -1.44926e-014 -1.66979e-014
lhumerus -33.4435 -4.27566 82.8104
lradius 117.705
lwrist 74.5015
lhand -19.6125 7.39948
lfingers 7.12502
lthumb 6.71389 37.273
rfemur 18.5625 -2.60585 35
rtibia -6.36111e-015
rfoot -16.4681 -15.8781
rtoes 14.5277
lfemur -79.2741 15.5644 -16.5908
ltibia 124.926
lfoot -2.12166 -13.6952
ltoes -21.6655
